<svg width="129" height="100" viewBox="0 0 129 100" fill="none" xmlns="http://www.w3.org/2000/svg">
<g clip-path="url(#clip0_971_2335)">
<g clip-path="url(#clip1_971_2335)">
<path d="M50.0117 34.375C50.0117 36.8614 49.024 39.246 47.2658 41.0041C45.5077 42.7623 43.1231 43.75 40.6367 43.75C38.1503 43.75 35.7657 42.7623 34.0076 41.0041C32.2494 39.246 31.2617 36.8614 31.2617 34.375C31.2617 31.8886 32.2494 29.504 34.0076 27.7459C35.7657 25.9877 38.1503 25 40.6367 25C43.1231 25 45.5077 25.9877 47.2658 27.7459C49.024 29.504 50.0117 31.8886 50.0117 34.375Z" fill="white"/>
<path d="M75 0H25C21.6848 0 18.5054 1.31696 16.1612 3.66117C13.817 6.00537 12.5 9.18479 12.5 12.5V87.5C12.5 90.8152 13.817 93.9946 16.1612 96.3388C18.5054 98.683 21.6848 100 25 100H75C78.3152 100 81.4946 98.683 83.8388 96.3388C86.183 93.9946 87.5 90.8152 87.5 87.5V12.5C87.5 9.18479 86.183 6.00537 83.8388 3.66117C81.4946 1.31696 78.3152 0 75 0ZM18.75 12.5C18.75 10.8424 19.4085 9.25268 20.5806 8.08058C21.7527 6.90848 23.3424 6.25 25 6.25H75C76.6576 6.25 78.2473 6.90848 79.4194 8.08058C80.5915 9.25268 81.25 10.8424 81.25 12.5V62.5L68.2312 49.4812C67.9103 49.1608 67.5235 48.9141 67.0976 48.7582C66.6718 48.6022 66.217 48.5409 65.7651 48.5783C65.3131 48.6158 64.8747 48.7512 64.4803 48.9751C64.086 49.199 63.745 49.5061 63.4812 49.875L50 68.75L36.4688 60.625C35.8705 60.2668 35.1696 60.1189 34.4776 60.205C33.7856 60.2911 33.1423 60.6061 32.65 61.1L18.75 75V12.5Z" fill="white"/>
</g>
<path fill-rule="evenodd" clip-rule="evenodd" d="M113 0C113.354 0 113.693 0.140476 113.943 0.390525C114.193 0.640573 114.333 0.979711 114.333 1.33333V14.6667H127.667C128.02 14.6667 128.359 14.8071 128.609 15.0572C128.86 15.3072 129 15.6464 129 16C129 16.3536 128.86 16.6928 128.609 16.9428C128.359 17.1929 128.02 17.3333 127.667 17.3333H114.333V30.6667C114.333 31.0203 114.193 31.3594 113.943 31.6095C113.693 31.8595 113.354 32 113 32C112.646 32 112.307 31.8595 112.057 31.6095C111.807 31.3594 111.667 31.0203 111.667 30.6667V17.3333H98.3333C97.9797 17.3333 97.6406 17.1929 97.3905 16.9428C97.1405 16.6928 97 16.3536 97 16C97 15.6464 97.1405 15.3072 97.3905 15.0572C97.6406 14.8071 97.9797 14.6667 98.3333 14.6667H111.667V1.33333C111.667 0.979711 111.807 0.640573 112.057 0.390525C112.307 0.140476 112.646 0 113 0Z" fill="white"/>
</g>
<defs>
<clipPath id="clip0_971_2335">
<rect width="129" height="100" fill="white"/>
</clipPath>
<clipPath id="clip1_971_2335">
<rect width="100" height="100" fill="white"/>
</clipPath>
</defs>
</svg>
